<svg id="Layer_3" height="512" viewBox="0 0 64 64" width="512" xmlns="http://www.w3.org/2000/svg" data-name="Layer 3"><path d="m12 42a10 10 0 0 1 0-20c.067 0 .132.009.2.01a9.977 9.977 0 0 1 11.678-7.828 9.98 9.98 0 0 1 16.246 0 9.977 9.977 0 0 1 11.676 7.828c.067 0 .132-.01.2-.01a10 10 0 0 1 0 20z" fill="#f2b9a1"/><path d="m19 22h-2v-11.586l-4.888-4.888 1.414-1.414 5.181 5.18a1 1 0 0 1 .293.708z" fill="#f0ae42"/><path d="m47 22h-2v-12a1 1 0 0 1 .292-.707l5.192-5.193 1.416 1.415-4.9 4.9z" fill="#f0ae42"/><path d="m27 5h2v15h-2z" fill="#f8ced7"/><path d="m35 5h2v15h-2z" fill="#f8ced7"/><path d="m55.01 3.482h2v9.056h-2z" fill="#f0ae42" transform="matrix(.707 -.707 .707 .707 10.741 41.951)"/><path d="m3.463 7.015h9.04v2h-9.04z" fill="#f0ae42" transform="matrix(.707 -.707 .707 .707 -3.329 7.993)"/><path d="m6.585 31h-4.534a10.007 10.007 0 0 0 -.051 1c0 .337.018.671.05 1h4.95a1 1 0 0 0 .708-.293l3-3-1.416-1.415z" fill="#fbe1ca"/><path d="m54.707 28.292-1.415 1.415 3 3a1 1 0 0 0 .708.293h4.95c.032-.329.05-.663.05-1a10.007 10.007 0 0 0 -.051-1h-4.535z" fill="#fbe1ca"/><path d="m16 39v-3h-2v2.585l-3.318 3.315a10.044 10.044 0 0 0 1.318.1h1.413l2.294-2.294a1 1 0 0 0 .293-.706z" fill="#fbe1ca"/><path d="m50 38.585v-2.585h-2v3a1 1 0 0 0 .292.707l2.293 2.293h1.415a10.044 10.044 0 0 0 1.318-.1z" fill="#fbe1ca"/><path d="m14.521 29h3.479a1 1 0 0 0 .707-.292l2-2-1.415-1.415-1.707 1.707h-4.06a8.936 8.936 0 0 1 -.525-3h-2a11.013 11.013 0 0 0 11 11v-2a9 9 0 0 1 -7.479-4z" fill="#fbe1ca"/><path d="m51 24a8.937 8.937 0 0 1 -.526 3h-4.06l-1.707-1.708-1.415 1.415 2 2a1 1 0 0 0 .708.293h3.478a9 9 0 0 1 -7.478 4v2a11.013 11.013 0 0 0 11-11z" fill="#fbe1ca"/><path d="m30 37h-2v-5.586l-2.707-2.707 1.415-1.415 3 3a1 1 0 0 1 .292.708z" fill="#fbe1ca"/><path d="m36 37h-2v-6a1 1 0 0 1 .292-.708l3-3 1.415 1.415-2.707 2.707z" fill="#fbe1ca"/><circle cx="12" cy="4" fill="#559b2d" r="2"/><circle cx="28" cy="4" fill="#b52f28" r="2"/><circle cx="52" cy="4" fill="#b52f28" r="2"/><circle cx="60" cy="12" fill="#559b2d" r="2"/><circle cx="36" cy="4" fill="#559b2d" r="2"/><circle cx="32" cy="49" fill="#213d68" r="13"/><path d="m26 43h12v12h-12z" fill="#f0ae42"/><path d="m26 54.954a12.351 12.351 0 0 0 7.39-11.308c0-.218-.022-.431-.033-.646h-7.357z" fill="#f9d266"/><path d="m30 47h4v4h-4z" fill="#d5883e"/><g fill="#fce797"><path d="m27 40h2v3h-2z"/><path d="m31 40h2v3h-2z"/><path d="m35 40h2v3h-2z"/><path d="m27 55h2v3h-2z"/><path d="m31 55h2v3h-2z"/><path d="m35 55h2v3h-2z"/><path d="m38 44h3v2h-3z"/><path d="m38 48h3v2h-3z"/><path d="m38 52h3v2h-3z"/><path d="m23 44h3v2h-3z"/><path d="m23 48h3v2h-3z"/><path d="m23 52h3v2h-3z"/></g><circle cx="4" cy="12" fill="#b52f28" r="2"/><path d="m30 47v4h.946a12.315 12.315 0 0 0 1.971-4z" fill="#f3a748"/></svg>