<svg height="512" viewBox="0 0 64 64" width="512" xmlns="http://www.w3.org/2000/svg"><g id="survey"><path d="m61 51v6h-5-5v-.81-5.19h5.19z" fill="#00d7df"/><path d="m61 3v6h-5-5v-1.19-4.81z" fill="#00d7df"/><path d="m55 37.17a2 2 0 0 1 -2.83 2.83l-4.24-4.24 1.42-1.41 1.41-1.42z" fill="#c0ab91"/><path d="m41 18a7.995 7.995 0 1 1 -2.97.57 8 8 0 0 1 2.97-.57z" fill="#c6c5ca"/><path d="m49 26a7.989 7.989 0 0 1 -8 8 7.986 7.986 0 0 1 -7.29-4.71 3.09 3.09 0 0 0 .32.14 7.931 7.931 0 0 0 2.97.57 7.989 7.989 0 0 0 8-8 7.867 7.867 0 0 0 -.71-3.29 7.981 7.981 0 0 1 4.71 7.29z" fill="#898890"/><g fill="#57a4ff"><path d="m35.18 15a14.74 14.74 0 0 1 2.85 3.57 8 8 0 0 0 -5.03 7.43 24.962 24.962 0 0 0 -1.42-8.52 15.181 15.181 0 0 0 3.6-2.48z"/><path d="m38.03 33.43a14.74 14.74 0 0 1 -2.85 3.57 15.181 15.181 0 0 0 -3.6-2.48 24.962 24.962 0 0 0 1.42-8.52 8 8 0 0 0 5.03 7.43z"/><path d="m25.41 11.02a14.815 14.815 0 0 1 9.77 3.98 15.181 15.181 0 0 1 -3.6 2.48c-1.37-3.72-3.61-6.22-6.17-6.46z"/><path d="m35.18 37a14.815 14.815 0 0 1 -9.77 3.98c2.56-.24 4.8-2.74 6.17-6.46a15.181 15.181 0 0 1 3.6 2.48z"/><path d="m33 26h-8v-7a14.939 14.939 0 0 0 6.58-1.52 24.962 24.962 0 0 1 1.42 8.52z"/><path d="m25 26h8a24.962 24.962 0 0 1 -1.42 8.52 14.939 14.939 0 0 0 -6.58-1.52z"/><path d="m31.58 17.48a14.939 14.939 0 0 1 -6.58 1.52v-8c.14 0 .28.01.41.02 2.56.24 4.8 2.74 6.17 6.46z"/><path d="m25 33a14.939 14.939 0 0 1 6.58 1.52c-1.37 3.72-3.61 6.22-6.17 6.46-.13.01-.27.02-.41.02z"/><path d="m25 33v8c-2.73 0-5.14-2.56-6.58-6.48a14.939 14.939 0 0 1 6.58-1.52z"/><path d="m25 26v7a14.939 14.939 0 0 0 -6.58 1.52 24.962 24.962 0 0 1 -1.42-8.52z"/><path d="m25 19v7h-8a24.962 24.962 0 0 1 1.42-8.52 14.939 14.939 0 0 0 6.58 1.52z"/><path d="m25 11v8a14.939 14.939 0 0 1 -6.58-1.52c1.44-3.92 3.85-6.48 6.58-6.48z"/><path d="m25 11c-2.73 0-5.14 2.56-6.58 6.48a15.181 15.181 0 0 1 -3.6-2.48 14.87 14.87 0 0 1 10.18-4z"/><path d="m18.42 34.52c1.44 3.92 3.85 6.48 6.58 6.48a14.87 14.87 0 0 1 -10.18-4 15.181 15.181 0 0 1 3.6-2.48z"/><path d="m18.42 17.48a24.962 24.962 0 0 0 -1.42 8.52h-7a14.892 14.892 0 0 1 4.82-11 15.181 15.181 0 0 0 3.6 2.48z"/><path d="m17 26a24.962 24.962 0 0 0 1.42 8.52 15.181 15.181 0 0 0 -3.6 2.48 14.892 14.892 0 0 1 -4.82-11z"/></g><path d="m13 56.19v.81h-5-5v-6h4.81 5.19z" fill="#00d7df"/><path d="m13 7.81v1.19h-5-5v-6h10z" fill="#00d7df"/><path d="m57 3h4v6h-4z" fill="#009698"/><path d="m9 3h4v6h-4z" fill="#009698"/><path d="m57 51h4v6h-4z" fill="#009698"/><path d="m9 51h4v6h-4z" fill="#009698"/><path d="m13 2h-10a1 1 0 0 0 -1 1v6a1 1 0 0 0 1 1h4v2h-3v2h8v-2h-3v-2h4a1 1 0 0 0 1-1v-6a1 1 0 0 0 -1-1zm-1 6h-8v-4h8z"/><path d="m61 2h-10a1 1 0 0 0 -1 1v6a1 1 0 0 0 1 1h4v2h-3v2h8v-2h-3v-2h4a1 1 0 0 0 1-1v-6a1 1 0 0 0 -1-1zm-1 6h-8v-4h8z"/><path d="m13 50h-10a1 1 0 0 0 -1 1v6a1 1 0 0 0 1 1h4v2h-3v2h8v-2h-3v-2h4a1 1 0 0 0 1-1v-6a1 1 0 0 0 -1-1zm-1 6h-8v-4h8z"/><path d="m61 50h-10a1 1 0 0 0 -1 1v6a1 1 0 0 0 1 1h4v2h-3v2h8v-2h-3v-2h4a1 1 0 0 0 1-1v-6a1 1 0 0 0 -1-1zm-1 6h-8v-4h8z"/><path d="m8.643 47.447a28.017 28.017 0 0 1 0-30.894l-1.667-1.106a30.02 30.02 0 0 0 0 33.106z"/><path d="m32 60a27.868 27.868 0 0 1 -15.448-4.644l-1.1 1.668a30.017 30.017 0 0 0 33.1 0l-1.1-1.668a27.868 27.868 0 0 1 -15.452 4.644z"/><path d="m55.357 16.553a28.017 28.017 0 0 1 0 30.894l1.667 1.106a30.02 30.02 0 0 0 0-33.106z"/><path d="m32 4a27.868 27.868 0 0 1 15.448 4.644l1.1-1.668a30.017 30.017 0 0 0 -33.1 0l1.1 1.668a27.868 27.868 0 0 1 15.452-4.644z"/><path d="m55.71 36.46-4.25-4.24a1.034 1.034 0 0 0 -1.41 0l-.71.71-1.31-1.32a8.99 8.99 0 0 0 -9.57-14.24 16 16 0 1 0 0 17.26 8.928 8.928 0 0 0 8.15-1.61l1.32 1.32-.71.71a1 1 0 0 0 0 1.41l4.24 4.25a3.005 3.005 0 0 0 4.25-4.25zm-36.05-23.39a14.094 14.094 0 0 0 -1.75 2.99 13.562 13.562 0 0 1 -1.54-1.06 13.869 13.869 0 0 1 3.29-1.93zm-4.78 3.29a16.344 16.344 0 0 0 2.31 1.59 25.732 25.732 0 0 0 -1.16 7.05h-4.98a13.924 13.924 0 0 1 3.83-8.64zm-3.83 10.64h4.98a25.732 25.732 0 0 0 1.16 7.05 16.344 16.344 0 0 0 -2.31 1.59 13.924 13.924 0 0 1 -3.83-8.64zm5.32 10a13.562 13.562 0 0 1 1.54-1.06 14.094 14.094 0 0 0 1.75 2.99 13.869 13.869 0 0 1 -3.29-1.93zm7.63 2.83c-1.69-.51-3.2-2.27-4.29-4.79a13.9 13.9 0 0 1 4.29-.99zm0-7.78a15.549 15.549 0 0 0 -4.97 1.11 24.274 24.274 0 0 1 -1-6.16h5.97zm0-7.05h-5.97a24.274 24.274 0 0 1 1-6.16 15.549 15.549 0 0 0 4.97 1.11zm0-7.05a13.9 13.9 0 0 1 -4.29-.99c1.09-2.52 2.6-4.28 4.29-4.79zm12.59.21a9.131 9.131 0 0 0 -3.04 2.79 23.5 23.5 0 0 0 -.74-3 15.706 15.706 0 0 0 2.32-1.6 14.267 14.267 0 0 1 1.46 1.81zm-2.95-3.16a14.641 14.641 0 0 1 -1.55 1.06 14.511 14.511 0 0 0 -1.74-2.99 14.131 14.131 0 0 1 3.29 1.93zm-7.64-2.83c1.69.51 3.2 2.27 4.29 4.79a13.9 13.9 0 0 1 -4.29.99zm0 7.78a15.549 15.549 0 0 0 4.97-1.11 24.274 24.274 0 0 1 1 6.16h-5.97zm0 7.05h5.97a24.274 24.274 0 0 1 -1 6.16 15.549 15.549 0 0 0 -4.97-1.11zm0 12.83v-5.78a13.9 13.9 0 0 1 4.29.99c-1.09 2.52-2.6 4.28-4.29 4.79zm4.35-.9a14.511 14.511 0 0 0 1.74-2.99 14.641 14.641 0 0 1 1.55 1.06 14.131 14.131 0 0 1 -3.29 1.93zm4.78-3.28a15.706 15.706 0 0 0 -2.32-1.6 23.5 23.5 0 0 0 .74-3 9.131 9.131 0 0 0 3.04 2.79 14.267 14.267 0 0 1 -1.46 1.81zm5.87-2.65a7 7 0 1 1 7-7 7.008 7.008 0 0 1 -7 7zm13.29 6.29a1 1 0 0 1 -1.41 0l-3.54-3.53 1.42-1.42 3.53 3.54a.978.978 0 0 1 0 1.41z"/><path d="m21 44h2v2h-2z"/><path d="m25 44h18v2h-18z"/><path d="m21 48h2v2h-2z"/><path d="m25 48h18v2h-18z"/><path d="m21 52h2v2h-2z"/><path d="m25 52h18v2h-18z"/></g></svg>