<svg height="512pt" viewBox="0 -3 512.001 512" width="512pt" xmlns="http://www.w3.org/2000/svg"><path d="m439.949219 457.144531h-422.757813c-9.496094 0-17.191406-7.699219-17.191406-17.191406v-422.757813c0-9.496093 7.695312-17.195312 17.191406-17.195312h422.757813c9.496093 0 17.195312 7.699219 17.195312 17.191406v422.761719c0 9.492187-7.699219 17.191406-17.195312 17.191406zm0 0" fill="#f2f2f2"/><path d="m439.949219 0h-55.3125c9.492187 0 17.191406 7.699219 17.191406 17.191406v422.761719c0 9.492187-7.699219 17.191406-17.191406 17.191406h55.3125c9.496093 0 17.195312-7.699219 17.195312-17.191406v-422.757813c0-9.496093-7.699219-17.195312-17.195312-17.195312zm0 0" fill="#cdd6df"/><path d="m439.949219 0h-422.757813c-9.496094 0-17.191406 7.699219-17.191406 17.195312v52.027344h457.144531v-52.027344c0-9.496093-7.699219-17.195312-17.195312-17.195312zm0 0" fill="#426175"/><path d="m457.144531 69.222656v-52.027344c0-9.496093-7.699219-17.195312-17.195312-17.195312h-55.3125c9.492187.00390625 17.191406 7.699219 17.191406 17.195312v52.027344zm0 0" fill="#2c4456"/><path d="m207.886719 42.339844h-168.003907c-4.269531 0-7.726562-3.460938-7.726562-7.726563s3.460938-7.726562 7.726562-7.726562h168.003907c4.269531 0 7.726562 3.460937 7.726562 7.726562s-3.457031 7.726563-7.726562 7.726563zm0 0" fill="#f2f2f2"/><g fill="#46d1c0"><path d="m346.097656 34.613281c0 4.542969-3.683594 8.230469-8.230468 8.230469-4.542969 0-8.226563-3.6875-8.226563-8.230469 0-4.546875 3.683594-8.230469 8.226563-8.230469 4.546874 0 8.230468 3.683594 8.230468 8.230469zm0 0"/><path d="m385.550781 34.613281c0 4.542969-3.683593 8.230469-8.230469 8.230469-4.542968 0-8.230468-3.6875-8.230468-8.230469 0-4.546875 3.6875-8.230469 8.230468-8.230469 4.546876 0 8.230469 3.683594 8.230469 8.230469zm0 0"/><path d="m425.003906 34.613281c0 4.542969-3.6875 8.230469-8.230468 8.230469-4.546876 0-8.230469-3.6875-8.230469-8.230469 0-4.546875 3.683593-8.230469 8.230469-8.230469 4.542968 0 8.230468 3.683594 8.230468 8.230469zm0 0"/></g><path d="m501.347656 379.210938h-7.09375c-4.664062 0-8.816406-3.023438-10.167968-7.484376-1.71875-5.675781-4.007813-11.101562-6.800782-16.214843-2.257812-4.136719-1.496094-9.265625 1.835938-12.597657l5.085937-5.085937c4.160157-4.160156 4.160157-10.90625 0-15.066406l-8.585937-8.585938c-4.160156-4.160156-10.90625-4.160156-15.066406 0l-5.085938 5.085938c-3.328125 3.332031-8.460938 4.09375-12.597656 1.835937-5.109375-2.792968-10.539063-5.082031-16.210938-6.800781-4.464844-1.351563-7.484375-5.503906-7.484375-10.167969v-7.089844c0-5.886718-4.769531-10.65625-10.652343-10.65625h-12.140626c-5.886718 0-10.652343 4.773438-10.652343 10.65625v6.632813c0 4.730469-3.113281 8.925781-7.664063 10.21875-5.851562 1.664063-11.449218 3.933594-16.722656 6.734375-4.109375 2.179688-9.171875 1.378906-12.460938-1.910156l-4.535156-4.535156c-4.160156-4.160157-10.90625-4.160157-15.066406 0l-8.585938 8.582031c-4.160156 4.160156-4.160156 10.90625 0 15.066406l4.070313 4.074219c3.359375 3.355468 4.113281 8.550781 1.785156 12.691406-3.023437 5.375-5.484375 11.109375-7.308593 17.121094-1.355469 4.476562-5.546876 7.496094-10.226563 7.496094h-5.460937c-5.882813 0-10.652344 4.769531-10.652344 10.652343v12.140625c0 5.882813 4.769531 10.652344 10.652344 10.652344h5.035156c4.726562 0 8.945312 3.09375 10.234375 7.640625 1.765625 6.207031 4.203125 12.128906 7.238281 17.679687 2.253906 4.117188 1.460938 9.238282-1.859375 12.554688l-3.507813 3.507812c-4.160156 4.160157-4.160156 10.90625 0 15.066407l8.585938 8.585937c4.160156 4.15625 10.90625 4.15625 15.066406 0l3.507813-3.507812c3.316406-3.320313 8.433593-4.113282 12.554687-1.859375 5.550782 3.03125 11.46875 5.472656 17.675782 7.234375 4.550781 1.292968 7.644531 5.507812 7.644531 10.238281v5.035156c0 5.882813 4.769531 10.652344 10.652343 10.652344h12.140626c5.882812 0 10.652343-4.769531 10.652343-10.652344v-5.460937c0-4.679688 3.019531-8.871094 7.496094-10.226563 6.011719-1.824219 11.746094-4.285156 17.121094-7.308593 4.140625-2.332032 9.332031-1.578126 12.691406 1.78125l4.074219 4.074218c4.160156 4.160156 10.902344 4.160156 15.0625 0l8.585937-8.585937c4.160157-4.160157 4.160157-10.902344 0-15.066407l-4.535156-4.535156c-3.292969-3.289062-4.09375-8.347656-1.910156-12.460937 2.800781-5.273438 5.066406-10.871094 6.730469-16.722657 1.292968-4.550781 5.492187-7.664062 10.222656-7.664062h6.632812c5.882813 0 10.652344-4.769531 10.652344-10.652344v-12.140625c0-5.886719-4.769531-10.652343-10.652344-10.652343zm-98.898437 63.792968c-25.996094 0-47.070313-21.074218-47.070313-47.070312 0-26 21.074219-47.074219 47.070313-47.074219 26 0 47.074219 21.074219 47.074219 47.074219 0 25.996094-21.074219 47.070312-47.074219 47.070312zm0 0" fill="#fd715c"/><path d="m98.101562 245.808594 51.894532-33.9375c.789062-.59375 1.972656-.789063 2.960937-.789063 4.144531 0 9.472657 4.339844 9.472657 9.863281 0 2.371094-1.183594 4.539063-2.960938 5.722657l-41.4375 27.230469 41.4375 27.230468c1.777344.988282 2.960938 3.160156 2.960938 5.722656 0 5.527344-5.328126 9.671876-9.472657 9.671876-.988281 0-2.171875-.199219-2.960937-.789063l-51.894532-33.941406c-2.960937-1.972657-4.339843-5.328125-4.339843-7.894531 0-2.5625 1.378906-6.117188 4.339843-8.089844zm0 0" fill="#33bca5"/><path d="m272.144531 164.117188c0 1.183593-.199219 2.171874-.789062 3.15625l-72.417969 144.441406c-1.183594 2.367187-3.75 3.75-6.511719 3.75-4.539062 0-7.695312-3.75-7.695312-7.300782 0-.988281.195312-1.972656.589843-2.960937l72.617188-145.035156c1.183594-2.566407 3.351562-3.550781 5.917969-3.550781 3.949219 0 8.289062 2.960937 8.289062 7.5zm0 0" fill="#33bca5"/><path d="m358.574219 261.792969-51.898438 33.941406c-.789062.589844-1.777343.789063-2.761719.789063-4.339843 0-9.472656-4.144532-9.472656-9.671876 0-2.5625 1.183594-4.734374 2.761719-5.722656l41.636719-27.230468-41.636719-27.230469c-1.574219-1.183594-2.761719-3.355469-2.761719-5.722657 0-5.523437 5.132813-9.863281 9.472656-9.863281.984376 0 1.972657.195313 2.761719.789063l51.898438 33.9375c2.957031 1.972656 4.339843 5.527344 4.339843 8.089844 0 2.566406-1.183593 5.921874-4.339843 7.894531zm0 0" fill="#33bca5"/></svg>