<svg width="55" height="55" viewBox="0 0 55 55" fill="none" xmlns="http://www.w3.org/2000/svg">
<g clip-path="url(#clip0)">
<path d="M38.1559 29.3359H11.0209C10.0894 29.3359 9.33337 28.5799 9.33337 27.6484V17.5234C9.33337 16.5919 10.0894 15.8359 11.0209 15.8359H43.6459C44.5774 15.8359 45.3334 16.5919 45.3334 17.5234V22.5859C45.3334 23.5174 44.5774 24.2734 43.6459 24.2734C42.7144 24.2734 41.9584 23.5174 41.9584 22.5859V19.2109H12.7084V25.9609H38.1559C39.0874 25.9609 39.8434 26.7169 39.8434 27.6484C39.8434 28.5799 39.0874 29.3359 38.1559 29.3359Z" fill="white"/>
<path d="M31.4284 36.0635H11.1334C10.2019 36.0635 9.44592 35.3075 9.44592 34.376C9.44592 33.4445 10.2019 32.6885 11.1334 32.6885H31.4284C32.3599 32.6885 33.1159 33.4445 33.1159 34.376C33.1159 35.3075 32.3599 36.0635 31.4284 36.0635Z" fill="white"/>
<path d="M24.7234 42.8135H11.1334C10.2019 42.8135 9.44592 42.0575 9.44592 41.126C9.44592 40.1945 10.2019 39.4385 11.1334 39.4385H24.7234C25.6549 39.4385 26.4109 40.1945 26.4109 41.126C26.4109 42.0575 25.6549 42.8135 24.7234 42.8135Z" fill="white"/>
<path d="M28.5191 54.0862C28.0759 54.0862 27.6439 53.9107 27.3266 53.5912C26.9374 53.2019 26.7619 52.6484 26.8586 52.1039L28.0511 45.3427C28.1119 45.0029 28.2761 44.6879 28.5191 44.4427L45.2254 27.7387C45.9364 27.0277 46.6901 26.5844 47.4664 26.4224C48.5396 26.1974 49.5791 26.5237 50.3959 27.3427L53.1791 30.1259C54.7136 31.6604 54.7136 34.1579 53.1791 35.6947L36.4751 52.4009C36.2299 52.6462 35.9149 52.8104 35.5751 52.8689L28.8139 54.0614C28.7149 54.0772 28.6181 54.0862 28.5191 54.0862ZM35.2826 51.2062H35.3051H35.2826ZM31.2821 46.4542L30.6004 50.3174L34.4636 49.6357L50.7919 33.3052C51.0101 33.0847 51.0101 32.7292 50.7919 32.5087L48.0289 29.7457C48.0064 29.7884 47.8376 29.8964 47.6104 30.1214L31.2821 46.4542Z" fill="white"/>
<path d="M22.4509 49.5859H6.52087C3.10762 49.5859 0.333374 46.8117 0.333374 43.3984V6.27344C0.333374 2.86019 3.10762 0.0859375 6.52087 0.0859375H48.1459C51.5591 0.0859375 54.3334 2.86019 54.3334 6.27344V22.6759C54.3334 23.6074 53.5774 24.3634 52.6459 24.3634C51.7144 24.3634 50.9584 23.6074 50.9584 22.6759V6.27344C50.9584 4.72319 49.6961 3.46094 48.1459 3.46094H6.52087C4.97062 3.46094 3.70837 4.72319 3.70837 6.27344V43.3984C3.70837 44.9487 4.97062 46.2109 6.52087 46.2109H22.4509C23.3824 46.2109 24.1384 46.9669 24.1384 47.8984C24.1384 48.8299 23.3824 49.5859 22.4509 49.5859Z" fill="white"/>
<path d="M52.6459 11.3359H2.02087C1.08937 11.3359 0.333374 10.5799 0.333374 9.64844C0.333374 8.71694 1.08937 7.96094 2.02087 7.96094H52.6459C53.5774 7.96094 54.3334 8.71694 54.3334 9.64844C54.3334 10.5799 53.5774 11.3359 52.6459 11.3359Z" fill="white"/>
</g>
<defs>
<clipPath id="clip0">
<rect width="54" height="54" fill="white" transform="translate(0.333374 0.0859375)"/>
</clipPath>
</defs>
</svg>
