<svg width="63" height="55" viewBox="0 0 63 55" fill="none" xmlns="http://www.w3.org/2000/svg">
<path d="M58.7007 40.512V15.4181L61.1526 14.5025C61.8627 14.2372 62.3335 13.5588 62.3335 12.8008C62.3335 12.0427 61.8627 11.3644 61.1526 11.0992L31.969 0.200734C31.5592 0.0476719 31.1079 0.0476719 30.6981 0.200734L1.51452 11.0992C0.804309 11.3644 0.333496 12.0427 0.333496 12.8008C0.333496 13.5588 0.804309 14.2372 1.5144 14.5024L13.6078 19.0186C10.7448 27.0969 11.4671 31.3463 11.353 32.7812C11.353 33.3839 11.652 33.9475 12.151 34.2854C12.6502 34.6233 13.2842 34.6915 13.8439 34.4677C13.8862 34.4509 18.1082 32.7812 22.2515 32.7812C26.0842 32.7812 30.1603 35.9855 30.1987 36.016C30.8622 36.5467 31.8048 36.5467 32.4681 36.016C33.5929 35.1163 37.2131 32.7812 40.4155 32.7812C44.5359 32.7812 48.7821 34.4515 48.8229 34.4677C49.3825 34.6915 50.0168 34.6232 50.5158 34.2854C51.015 33.9475 51.314 33.3839 51.314 32.7812C51.2085 31.4553 51.9072 27.0545 49.0591 19.0186L55.0679 16.7747V40.512C54.134 41.0166 53.3194 41.9218 52.6908 43.179C51.881 44.7986 51.4351 46.9117 51.4351 49.1289V52.7617C51.4351 53.7649 52.2483 54.5781 53.2515 54.5781H60.5171C61.5202 54.5781 62.3335 53.7649 62.3335 52.7617V49.1289C62.3335 46.9117 61.8875 44.7986 61.0778 43.179C60.4492 41.9218 59.6346 41.0166 58.7007 40.512ZM31.3335 3.8413L55.3251 12.8008C52.85 13.7251 33.7287 20.8659 31.3335 21.7603C28.9383 20.8659 9.81695 13.7251 7.34192 12.8008L31.3335 3.8413ZM47.6663 30.2653C45.8035 29.7356 43.1272 29.1484 40.4155 29.1484C36.7 29.1484 33.1047 31.1849 31.3335 32.3647C29.5623 31.1849 25.9669 29.1484 22.2515 29.1484C19.5399 29.1484 16.8635 29.7356 15.0007 30.2653C15.1052 26.5724 15.7611 23.822 17.0113 20.2896L30.6981 25.4008C31.1078 25.5539 31.5592 25.5539 31.969 25.4008L45.6559 20.2896C46.9059 23.822 47.5616 26.5725 47.6663 30.2653ZM58.7007 50.9453H55.0679V49.1289C55.0679 47.4888 55.3859 45.9123 55.9401 44.8037C56.4044 43.8751 56.8213 43.6797 56.8843 43.6797C56.9472 43.6797 57.3642 43.8751 57.8284 44.8037C58.3827 45.9123 58.7007 47.4888 58.7007 49.1289V50.9453Z" fill="white"/>
</svg>
