<svg width="85" height="75" viewBox="0 0 85 75" fill="none" xmlns="http://www.w3.org/2000/svg">
<path d="M15.2913 0C16.4121 0 74.3698 0 74.6947 0C77.7889 0 80.3062 2.5173 80.3062 5.61149V47.7024C80.3062 50.439 78.2781 52.8107 75.5794 53.2432L74.5687 54.05H16.2892L14.4064 53.2432C11.7077 52.8107 9.67963 50.439 9.67963 47.7024C9.67963 46.3019 9.67963 6.87819 9.67963 5.61149C9.67979 2.5173 12.1971 0 15.2913 0Z" fill="#365E7D"/>
<path d="M74.9531 47.7027V5.61174C74.9531 2.51754 72.4359 0.000244141 69.3417 0.000244141C72.6093 0.000244141 74.6347 0.000244141 74.6947 0.000244141C77.7889 0.000244141 80.3062 2.51754 80.3062 5.61174V47.7027C80.3062 50.4393 78.2781 52.811 75.5794 53.2434L74.5687 54.0503H69.2156L70.2263 53.2434C72.9251 52.811 74.9531 50.4393 74.9531 47.7027Z" fill="#2B4D66"/>
<path d="M15.4039 9.91132H74.2468L75.2651 10.9743V47.2409C75.2651 47.7969 74.8144 48.2478 74.2584 48.2478H15.7278C15.1718 48.2478 14.7211 47.7969 14.7211 47.2409C14.7211 46.2902 14.7211 12.0747 14.7211 10.9743L15.4039 9.91132Z" fill="#E4F6FF"/>
<path d="M68.7206 47.2409V10.9743L67.7023 9.91132H74.2468L75.2651 10.9743V47.2409C75.2651 47.7969 74.8144 48.2478 74.2584 48.2478H67.7139C68.2697 48.2478 68.7206 47.7969 68.7206 47.2409Z" fill="#D3EFFB"/>
<path d="M68.7206 5.00336H74.2584C74.8144 5.00336 75.2651 5.45409 75.2651 6.01024V10.9743H68.7206L68.2902 10.5151V5.32294L68.7206 5.00336Z" fill="#DD636E"/>
<path d="M15.7279 5.00336C18.3279 5.00336 66.6604 5.00336 68.7209 5.00336V10.9743H14.7214V6.01024C14.7212 5.45426 15.1719 5.00336 15.7279 5.00336Z" fill="#B1E4F9"/>
<path d="M5.9231 53.2434H84.063C84.5805 53.2434 85 53.6669 85 54.1895V57.4438C85 59.8583 83.0435 61.8339 80.6524 61.8339H9.33389C6.94277 61.8339 4.98628 59.8583 4.98628 57.4438V54.1895C4.98611 53.6669 5.40564 53.2434 5.9231 53.2434Z" fill="#407093"/>
<path d="M75.2652 57.4435V54.1893C75.2652 53.6668 74.8457 53.2432 74.3282 53.2432H84.063C84.5805 53.2432 85 53.6667 85 54.1893V57.4435C85 59.8581 83.0435 61.8336 80.6524 61.8336H70.9176C73.3087 61.8336 75.2652 59.8581 75.2652 57.4435Z" fill="#365E7D"/>
<path d="M0.890753 64.9714V31.5644L-8.58307e-05 30.7213C-8.58307e-05 28.6124 -8.58307e-05 27.2367 -8.58307e-05 26.9682C-8.58307e-05 25.041 1.56228 23.4786 3.48956 23.4786H24.9076C26.8348 23.4786 28.3972 25.041 28.3972 26.9682V30.7213L27.3996 31.6215V65.2855L28.3972 65.903V70.8619C28.3972 72.7892 26.8348 74.3516 24.9076 74.3516H3.48956C1.56228 74.3516 -8.58307e-05 72.7892 -8.58307e-05 70.8619C-8.58307e-05 70.5452 -8.58307e-05 68.688 -8.58307e-05 65.903L0.890753 64.9714Z" fill="#365E7D"/>
<path d="M23.2522 70.8618V65.9029L22.2546 65.2853V31.6215L23.2522 30.7213V26.9682C23.2522 25.041 21.6899 23.4786 19.7626 23.4786H24.9076C26.8348 23.4786 28.3972 25.041 28.3972 26.9682V30.7213L27.3996 31.6215V65.2855L28.3972 65.903V70.8619C28.3972 72.7892 26.8348 74.3516 24.9076 74.3516H19.7626C21.6899 74.3514 23.2522 72.789 23.2522 70.8618Z" fill="#294B64"/>
<path d="M45.8479 40.3372C39.924 40.3372 35.1217 35.5349 35.1217 29.611C35.1217 23.687 39.924 18.8847 45.8479 18.8847C51.7719 18.8847 56.5742 23.687 56.5742 29.611C56.5742 35.5349 51.7719 40.3372 45.8479 40.3372Z" fill="#DD636E"/>
<path d="M52.4696 29.611C52.4696 24.3891 48.7376 20.041 43.7957 19.0831C44.4602 18.9543 45.1459 18.8847 45.848 18.8847C51.7719 18.8847 56.5742 23.687 56.5742 29.611C56.5742 35.5349 51.7719 40.3372 45.848 40.3372C45.1459 40.3372 44.4602 40.2677 43.7957 40.1389C48.7376 39.1809 52.4696 34.8328 52.4696 29.611Z" fill="#DA4A54"/>
<path d="M41.4834 28.5002L46.9877 24.7469C47.8802 24.1383 49.0896 24.7775 49.0896 25.8577V33.3643C49.0896 34.4446 47.8802 35.0837 46.9877 34.4751L41.4834 30.7218C40.7007 30.1881 40.7007 29.0339 41.4834 28.5002Z" fill="#F4FBFF"/>
<path d="M44.985 26.1124L46.9877 24.7469C47.8802 24.1383 49.0896 24.7775 49.0896 25.8577V33.3643C49.0896 34.4446 47.8802 35.0837 46.9877 34.4751L44.985 33.1096V26.1124Z" fill="#E4F6FF"/>
<path d="M28.3972 35.6119H-8.58307e-05V65.9028H28.3972V35.6119Z" fill="#90D8F9"/>
<path d="M28.3972 35.6119H23.2526V65.9028H28.3972V35.6119Z" fill="#75CEF9"/>
<path d="M12.8354 71.14H15.5621C16.2705 71.14 16.8447 70.5657 16.8447 69.8573C16.8447 69.149 16.2705 68.5747 15.5621 68.5747H12.8354C12.1271 68.5747 11.5528 69.149 11.5528 69.8573C11.5528 70.5657 12.1271 71.14 12.8354 71.14Z" fill="#365E7D"/>
<path d="M14.1985 60.0435C9.04275 60.0435 4.86316 55.8639 4.86316 50.7081C4.86316 45.5523 9.04275 41.3727 14.1985 41.3727C19.3543 41.3727 23.5339 45.5523 23.5339 50.7081C23.5339 55.8639 19.3543 60.0435 14.1985 60.0435Z" fill="#DD636E"/>
<path d="M20.0066 50.7081C20.0066 46.1555 16.7471 42.3662 12.4348 41.5412C13.0062 41.432 13.5952 41.3726 14.1985 41.3726C19.3543 41.3726 23.5339 45.5522 23.5339 50.7081C23.5339 55.8639 19.3543 60.0435 14.1985 60.0435C13.5952 60.0435 13.0062 59.9841 12.4348 59.8748C16.7471 59.0501 20.0066 55.2606 20.0066 50.7081Z" fill="#DA4A54"/>
<path d="M28.3972 30.7213H23.1669V35.8552H28.3972V30.7213Z" fill="#DD636E"/>
<path d="M23.2529 30.7213V35.8552H0.000106812V30.7213C2.82652 30.7213 20.3938 30.7213 23.2529 30.7213Z" fill="#B1E4F9"/>
<path d="M10.3997 49.7413L15.1903 46.4748C15.9671 45.9452 17.0198 46.5015 17.0198 47.4417V53.9749C17.0198 54.915 15.9671 55.4713 15.1903 54.9418L10.3997 51.6751C9.71841 51.2104 9.71841 50.2058 10.3997 49.7413Z" fill="#F4FBFF"/>
<path d="M13.4923 47.6325L15.1903 46.4747C15.9671 45.9451 17.0198 46.5013 17.0198 47.4416V53.9748C17.0198 54.9149 15.9671 55.4712 15.1903 54.9415L13.4923 53.7837V47.6325Z" fill="#E4F6FF"/>
</svg>
