<svg width="76" height="76" viewBox="0 0 76 76" fill="none" xmlns="http://www.w3.org/2000/svg">
<path d="M72.5083 38.0026L75.8427 29.306C76.2085 28.3466 75.9235 27.2589 75.1208 26.6082L67.8915 20.7471L66.4285 11.547C66.267 10.5305 65.4691 9.73734 64.4526 9.57585L55.2521 8.11295L49.3955 0.879202C48.7495 0.076507 47.6381 -0.208473 46.7024 0.157251L38.0006 3.49627L29.3036 0.162001C28.3394 -0.208473 27.2612 0.0860064 26.6105 0.883951L20.7491 8.1177L11.5487 9.5806C10.5369 9.74209 9.73896 10.54 9.57746 11.5517L8.11451 20.7518L0.880471 26.6129C0.0824951 27.2589 -0.207246 28.3466 0.158493 29.306L3.49289 38.0026L0.158493 46.6993C-0.211996 47.6587 0.0824951 48.7464 0.880471 49.3923L8.11451 55.2487L9.57746 64.4488C9.73896 65.4652 10.5322 66.2632 11.5487 66.4247L20.7491 67.8876L26.6105 75.1166C27.2612 75.924 28.3489 76.209 29.3084 75.8385L38.0006 72.509L46.6976 75.8433C46.9731 75.9478 47.2581 76 47.5478 76C48.2461 76 48.9348 75.6913 49.3955 75.1166L55.2521 67.8876L64.4526 66.4247C65.4691 66.2632 66.267 65.4652 66.4285 64.4488L67.8915 55.2487L75.1208 49.3923C75.9235 48.7416 76.2085 47.6587 75.8427 46.6993L72.5083 38.0026Z" fill="#F44336"/>
<path d="M30.8758 33.2542C26.9476 33.2542 23.751 30.0576 23.751 26.1294C23.751 22.2013 26.9476 19.0046 30.8758 19.0046C34.8039 19.0046 38.0006 22.2013 38.0006 26.1294C38.0006 30.0576 34.8039 33.2542 30.8758 33.2542ZM30.8758 23.7545C29.5648 23.7545 28.5008 24.8185 28.5008 26.1294C28.5008 27.4404 29.5648 28.5044 30.8758 28.5044C32.1867 28.5044 33.2507 27.4404 33.2507 26.1294C33.2507 24.8185 32.1867 23.7545 30.8758 23.7545Z" fill="#FAFAFA"/>
<path d="M45.1253 57.0035C41.1971 57.0035 38.0005 53.8068 38.0005 49.8787C38.0005 45.9506 41.1971 42.7539 45.1253 42.7539C49.0534 42.7539 52.2501 45.9506 52.2501 49.8787C52.2501 53.8068 49.0534 57.0035 45.1253 57.0035ZM45.1253 47.5038C43.8191 47.5038 42.7503 48.5725 42.7503 49.8787C42.7503 51.1849 43.8191 52.2536 45.1253 52.2536C46.4315 52.2536 47.5002 51.1849 47.5002 49.8787C47.5002 48.5725 46.4315 47.5038 45.1253 47.5038Z" fill="#FAFAFA"/>
<path d="M26.126 57.0035C25.6463 57.0035 25.1665 56.861 24.7485 56.5617C23.6798 55.797 23.4328 54.315 24.1975 53.2463L47.9468 19.9973C48.7116 18.9286 50.1935 18.6816 51.2622 19.4463C52.331 20.2063 52.5732 21.693 51.8132 22.757L28.0639 56.006C27.5937 56.6567 26.867 57.0035 26.126 57.0035Z" fill="#FAFAFA"/>
</svg>
