<svg width="1282" height="695" viewBox="0 0 1282 695" fill="none" xmlns="http://www.w3.org/2000/svg">
<path d="M1280.67 375.373V55.6598C1138.59 -1.79389 1049.29 9.69685 1049.29 9.69685C929.547 21.8635 861.893 94.1876 713.06 125.956C564.227 157.725 443.8 84.0487 391.033 59.0394C338.267 34.0302 283.467 7.66907 203.633 0.909811C123.8 -5.84945 1.35333 27.2709 1.35333 27.2709L0.00666666 375.373H0V694.41H1281.33V375.373H1280.67Z" fill="#E07C07"/>
<path opacity="0.19" d="M339.7 138.231V117.44L341.707 116.683C342.287 116.459 342.673 115.898 342.673 115.27C342.673 114.641 342.287 114.08 341.707 113.857L317.86 104.827C317.527 104.698 317.153 104.698 316.82 104.827L292.973 113.857C292.393 114.08 292.007 114.641 292.007 115.27C292.007 115.898 292.393 116.459 292.973 116.683L302.853 120.427C300.513 127.119 301.107 130.64 301.013 131.83C301.013 132.33 301.26 132.797 301.667 133.074C302.073 133.351 302.593 133.412 303.053 133.222C303.087 133.209 306.54 131.823 309.927 131.823C313.06 131.823 316.387 134.48 316.42 134.507C316.96 134.946 317.733 134.946 318.273 134.507C319.193 133.763 322.153 131.823 324.767 131.823C328.133 131.823 331.607 133.209 331.64 133.222C332.1 133.405 332.613 133.351 333.027 133.074C333.433 132.797 333.68 132.33 333.68 131.83C333.593 130.728 334.167 127.085 331.84 120.427L336.753 118.568V138.238C335.993 138.657 335.327 139.407 334.813 140.448C334.153 141.793 333.787 143.544 333.787 145.376V148.383C333.787 149.215 334.453 149.891 335.273 149.891H341.213C342.033 149.891 342.7 149.215 342.7 148.383V145.376C342.7 143.537 342.333 141.786 341.673 140.448C341.127 139.394 340.46 138.643 339.7 138.231ZM317.333 107.841L336.94 115.263C334.92 116.027 319.293 121.948 317.333 122.685C315.373 121.941 299.747 116.027 297.727 115.263L317.333 107.841ZM330.68 129.741C329.16 129.302 326.973 128.815 324.753 128.815C321.72 128.815 318.78 130.505 317.333 131.479C315.887 130.498 312.947 128.815 309.913 128.815C307.7 128.815 305.513 129.302 303.987 129.741C304.073 126.679 304.607 124.402 305.627 121.475L316.813 125.713C317.147 125.841 317.52 125.841 317.853 125.713L329.04 121.475C330.06 124.402 330.593 126.679 330.68 129.741ZM339.7 146.876H336.733V145.369C336.733 144.01 336.993 142.706 337.447 141.786C337.827 141.016 338.167 140.854 338.22 140.854C338.273 140.854 338.613 141.016 338.993 141.786C339.447 142.706 339.707 144.01 339.707 145.369V146.876H339.7Z" fill="white"/>
<path opacity="0.19" d="M1071.7 127.416V106.625L1073.71 105.868C1074.29 105.645 1074.67 105.084 1074.67 104.455C1074.67 103.826 1074.29 103.265 1073.71 103.042L1049.86 94.0118C1049.53 93.8834 1049.15 93.8834 1048.82 94.0118L1024.97 103.042C1024.39 103.265 1024.01 103.826 1024.01 104.455C1024.01 105.084 1024.39 105.645 1024.97 105.868L1034.85 109.612C1032.51 116.304 1033.11 119.825 1033.01 121.015C1033.01 121.515 1033.26 121.982 1033.67 122.259C1034.07 122.536 1034.59 122.597 1035.05 122.407C1035.09 122.394 1038.54 121.008 1041.93 121.008C1045.06 121.008 1048.39 123.665 1048.42 123.692C1048.96 124.131 1049.73 124.131 1050.27 123.692C1051.19 122.948 1054.15 121.008 1056.77 121.008C1060.13 121.008 1063.61 122.394 1063.64 122.407C1064.1 122.59 1064.61 122.536 1065.03 122.259C1065.43 121.982 1065.68 121.515 1065.68 121.015C1065.59 119.913 1066.17 116.27 1063.84 109.612L1068.75 107.753V127.423C1067.99 127.842 1067.33 128.592 1066.81 129.633C1066.15 130.978 1065.79 132.729 1065.79 134.561V137.568C1065.79 138.4 1066.45 139.076 1067.27 139.076H1073.21C1074.03 139.076 1074.7 138.4 1074.7 137.568V134.561C1074.7 132.722 1074.33 130.971 1073.67 129.633C1073.13 128.579 1072.46 127.828 1071.7 127.416ZM1049.33 97.0265L1068.94 104.448C1066.92 105.212 1051.29 111.133 1049.33 111.87C1047.37 111.126 1031.75 105.212 1029.73 104.448L1049.33 97.0265ZM1062.68 118.926C1061.16 118.487 1058.97 118 1056.75 118C1053.72 118 1050.78 119.69 1049.33 120.664C1047.89 119.683 1044.95 118 1041.91 118C1039.7 118 1037.51 118.487 1035.99 118.926C1036.07 115.865 1036.61 113.587 1037.63 110.66L1048.81 114.898C1049.15 115.026 1049.52 115.026 1049.85 114.898L1061.04 110.66C1062.06 113.587 1062.59 115.865 1062.68 118.926ZM1071.7 136.061H1068.73V134.554C1068.73 133.195 1068.99 131.891 1069.45 130.971C1069.83 130.201 1070.17 130.039 1070.22 130.039C1070.27 130.039 1070.61 130.201 1070.99 130.971C1071.45 131.891 1071.71 133.195 1071.71 134.554V136.061H1071.7Z" fill="white"/>
<path opacity="0.19" d="M868.367 562.712V541.921L870.373 541.164C870.953 540.941 871.34 540.38 871.34 539.751C871.34 539.123 870.953 538.562 870.373 538.339L846.527 529.308C846.193 529.18 845.82 529.18 845.487 529.308L821.64 538.339C821.06 538.562 820.673 539.123 820.673 539.751C820.673 540.38 821.06 540.941 821.64 541.164L831.52 544.909C829.18 551.6 829.773 555.122 829.68 556.311C829.68 556.812 829.927 557.278 830.333 557.555C830.74 557.832 831.26 557.893 831.72 557.704C831.753 557.69 835.207 556.305 838.593 556.305C841.727 556.305 845.053 558.961 845.087 558.988C845.627 559.427 846.4 559.427 846.94 558.988C847.86 558.245 850.82 556.305 853.433 556.305C856.8 556.305 860.273 557.69 860.307 557.704C860.767 557.886 861.28 557.832 861.693 557.555C862.1 557.278 862.347 556.812 862.347 556.311C862.26 555.21 862.833 551.566 860.507 544.909L865.42 543.05V562.719C864.66 563.138 863.993 563.889 863.48 564.929C862.82 566.275 862.453 568.025 862.453 569.857V572.865C862.453 573.696 863.12 574.372 863.94 574.372H869.88C870.7 574.372 871.367 573.696 871.367 572.865V569.857C871.367 568.018 871 566.268 870.34 564.929C869.793 563.875 869.127 563.125 868.367 562.712ZM846 532.323L865.607 539.745C863.587 540.508 847.96 546.429 846 547.166C844.04 546.423 828.413 540.508 826.393 539.745L846 532.323ZM859.347 554.223C857.827 553.783 855.64 553.297 853.42 553.297C850.387 553.297 847.447 554.987 846 555.96C844.553 554.98 841.613 553.297 838.58 553.297C836.367 553.297 834.18 553.783 832.653 554.223C832.74 551.161 833.273 548.883 834.293 545.956L845.48 550.194C845.813 550.323 846.187 550.323 846.52 550.194L857.707 545.956C858.727 548.883 859.26 551.161 859.347 554.223ZM868.367 571.358H865.4V569.85C865.4 568.492 865.66 567.187 866.113 566.268C866.493 565.497 866.833 565.335 866.887 565.335C866.94 565.335 867.28 565.497 867.66 566.268C868.113 567.187 868.373 568.492 868.373 569.85V571.358H868.367Z" fill="white"/>
<path opacity="0.19" d="M651.7 233.536V212.745L653.707 211.988C654.287 211.765 654.673 211.204 654.673 210.575C654.673 209.946 654.287 209.385 653.707 209.162L629.86 200.132C629.527 200.004 629.153 200.004 628.82 200.132L604.974 209.162C604.394 209.385 604.007 209.946 604.007 210.575C604.007 211.204 604.394 211.765 604.974 211.988L614.853 215.732C612.514 222.424 613.107 225.946 613.013 227.135C613.013 227.635 613.26 228.102 613.667 228.379C614.073 228.656 614.593 228.717 615.053 228.528C615.087 228.514 618.54 227.128 621.927 227.128C625.06 227.128 628.387 229.785 628.42 229.812C628.96 230.251 629.733 230.251 630.273 229.812C631.193 229.068 634.153 227.128 636.767 227.128C640.133 227.128 643.607 228.514 643.64 228.528C644.1 228.71 644.613 228.656 645.027 228.379C645.433 228.102 645.68 227.635 645.68 227.135C645.593 226.033 646.167 222.39 643.84 215.732L648.753 213.874V233.543C647.993 233.962 647.327 234.712 646.813 235.753C646.153 237.098 645.787 238.849 645.787 240.681V243.689C645.787 244.52 646.453 245.196 647.273 245.196H653.213C654.033 245.196 654.7 244.52 654.7 243.689V240.681C654.7 238.842 654.333 237.092 653.673 235.753C653.127 234.699 652.46 233.949 651.7 233.536ZM629.333 203.147L648.94 210.568C646.92 211.332 631.293 217.253 629.333 217.99C627.373 217.246 611.747 211.332 609.727 210.568L629.333 203.147ZM642.68 225.047C641.16 224.607 638.973 224.121 636.753 224.121C633.72 224.121 630.78 225.81 629.333 226.784C627.887 225.804 624.947 224.121 621.913 224.121C619.7 224.121 617.513 224.607 615.987 225.047C616.073 221.985 616.607 219.707 617.627 216.78L628.813 221.018C629.147 221.147 629.52 221.147 629.853 221.018L641.04 216.78C642.06 219.707 642.593 221.985 642.68 225.047ZM651.7 242.181H648.733V240.674C648.733 239.315 648.993 238.011 649.447 237.092C649.827 236.321 650.167 236.159 650.22 236.159C650.273 236.159 650.613 236.321 650.993 237.092C651.447 238.011 651.707 239.315 651.707 240.674V242.181H651.7Z" fill="white"/>
<path opacity="0.19" d="M130.367 114.573V93.7818L132.373 93.0248C132.953 92.8017 133.34 92.2407 133.34 91.6121C133.34 90.9835 132.953 90.4225 132.373 90.1994L108.527 81.1691C108.193 81.0406 107.82 81.0406 107.487 81.1691L83.64 90.1994C83.06 90.4225 82.6733 90.9835 82.6733 91.6121C82.6733 92.2407 83.06 92.8017 83.64 93.0248L93.52 96.7694C91.18 103.461 91.7733 106.983 91.68 108.172C91.68 108.672 91.9267 109.139 92.3333 109.416C92.74 109.693 93.26 109.754 93.72 109.565C93.7533 109.551 97.2067 108.166 100.593 108.166C103.727 108.166 107.053 110.822 107.087 110.849C107.627 111.288 108.4 111.288 108.94 110.849C109.86 110.105 112.82 108.166 115.433 108.166C118.8 108.166 122.273 109.551 122.307 109.565C122.767 109.747 123.28 109.693 123.693 109.416C124.1 109.139 124.347 108.672 124.347 108.172C124.26 107.071 124.833 103.427 122.507 96.7694L127.42 94.9106V114.58C126.66 114.999 125.993 115.749 125.48 116.79C124.82 118.135 124.453 119.886 124.453 121.718V124.726C124.453 125.557 125.12 126.233 125.94 126.233H131.88C132.7 126.233 133.367 125.557 133.367 124.726V121.718C133.367 119.879 133 118.129 132.34 116.79C131.793 115.736 131.127 114.986 130.367 114.573ZM108 84.1837L127.607 91.6054C125.587 92.3692 109.96 98.2903 108 99.027C106.04 98.2835 90.4133 92.3692 88.3933 91.6054L108 84.1837ZM121.347 106.084C119.827 105.644 117.64 105.158 115.42 105.158C112.387 105.158 109.447 106.847 108 107.821C106.553 106.841 103.613 105.158 100.58 105.158C98.3667 105.158 96.18 105.644 94.6533 106.084C94.74 103.022 95.2733 100.744 96.2933 97.8171L107.48 102.055C107.813 102.184 108.187 102.184 108.52 102.055L119.707 97.8171C120.727 100.744 121.26 103.022 121.347 106.084ZM130.367 123.218H127.4V121.711C127.4 120.352 127.66 119.048 128.113 118.129C128.493 117.358 128.833 117.196 128.887 117.196C128.94 117.196 129.28 117.358 129.66 118.129C130.113 119.048 130.373 120.352 130.373 121.711V123.218H130.367Z" fill="white"/>
<path opacity="0.19" d="M162.367 595.833V575.041L164.373 574.284C164.953 574.061 165.34 573.5 165.34 572.871C165.34 572.243 164.953 571.682 164.373 571.459L140.527 562.428C140.193 562.3 139.82 562.3 139.487 562.428L115.64 571.459C115.06 571.682 114.673 572.243 114.673 572.871C114.673 573.5 115.06 574.061 115.64 574.284L125.52 578.029C123.18 584.72 123.773 588.242 123.68 589.432C123.68 589.932 123.927 590.398 124.333 590.675C124.74 590.952 125.26 591.013 125.72 590.824C125.753 590.81 129.207 589.425 132.593 589.425C135.727 589.425 139.053 592.081 139.087 592.108C139.627 592.548 140.4 592.548 140.94 592.108C141.86 591.365 144.82 589.425 147.433 589.425C150.8 589.425 154.273 590.81 154.307 590.824C154.767 591.006 155.28 590.952 155.693 590.675C156.1 590.398 156.347 589.932 156.347 589.432C156.26 588.33 156.833 584.687 154.507 578.029L159.42 576.17V595.839C158.66 596.258 157.993 597.009 157.48 598.05C156.82 599.395 156.453 601.145 156.453 602.977V605.985C156.453 606.816 157.12 607.492 157.94 607.492H163.88C164.7 607.492 165.367 606.816 165.367 605.985V602.977C165.367 601.139 165 599.388 164.34 598.05C163.793 596.995 163.127 596.245 162.367 595.833ZM140 565.443L159.607 572.865C157.587 573.628 141.96 579.55 140 580.286C138.04 579.543 122.413 573.628 120.393 572.865L140 565.443ZM153.347 587.343C151.827 586.904 149.64 586.417 147.42 586.417C144.387 586.417 141.447 588.107 140 589.08C138.553 588.1 135.613 586.417 132.58 586.417C130.367 586.417 128.18 586.904 126.653 587.343C126.74 584.281 127.273 582.003 128.293 579.076L139.48 583.314C139.813 583.443 140.187 583.443 140.52 583.314L151.707 579.076C152.727 582.003 153.26 584.281 153.347 587.343ZM162.367 604.478H159.4V602.97C159.4 601.612 159.66 600.307 160.113 599.388C160.493 598.617 160.833 598.455 160.887 598.455C160.94 598.455 161.28 598.617 161.66 599.388C162.113 600.307 162.373 601.612 162.373 602.97V604.478H162.367Z" fill="white"/>
<path opacity="0.19" d="M1185.03 605.295V584.504L1187.04 583.747C1187.62 583.524 1188.01 582.963 1188.01 582.334C1188.01 581.706 1187.62 581.145 1187.04 580.922L1163.19 571.891C1162.86 571.763 1162.49 571.763 1162.15 571.891L1138.31 580.922C1137.73 581.145 1137.34 581.706 1137.34 582.334C1137.34 582.963 1137.73 583.524 1138.31 583.747L1148.19 587.492C1145.85 594.183 1146.44 597.705 1146.35 598.894C1146.35 599.395 1146.59 599.861 1147 600.138C1147.41 600.415 1147.93 600.476 1148.39 600.287C1148.42 600.273 1151.87 598.888 1155.26 598.888C1158.39 598.888 1161.72 601.544 1161.75 601.571C1162.29 602.01 1163.07 602.01 1163.61 601.571C1164.53 600.828 1167.49 598.888 1170.1 598.888C1173.47 598.888 1176.94 600.273 1176.97 600.287C1177.43 600.469 1177.95 600.415 1178.36 600.138C1178.77 599.861 1179.01 599.395 1179.01 598.894C1178.93 597.793 1179.5 594.149 1177.17 587.492L1182.09 585.633V605.302C1181.33 605.721 1180.66 606.472 1180.15 607.512C1179.49 608.858 1179.12 610.608 1179.12 612.44V615.448C1179.12 616.279 1179.79 616.955 1180.61 616.955H1186.55C1187.37 616.955 1188.03 616.279 1188.03 615.448V612.44C1188.03 610.601 1187.67 608.851 1187.01 607.512C1186.46 606.458 1185.79 605.708 1185.03 605.295ZM1162.67 574.906L1182.27 582.328C1180.25 583.091 1164.63 589.012 1162.67 589.749C1160.71 589.006 1145.08 583.091 1143.06 582.328L1162.67 574.906ZM1176.01 596.806C1174.49 596.366 1172.31 595.88 1170.09 595.88C1167.05 595.88 1164.11 597.57 1162.67 598.543C1161.22 597.563 1158.28 595.88 1155.25 595.88C1153.03 595.88 1150.85 596.366 1149.32 596.806C1149.41 593.744 1149.94 591.466 1150.96 588.539L1162.15 592.777C1162.48 592.906 1162.85 592.906 1163.19 592.777L1174.37 588.539C1175.39 591.466 1175.93 593.744 1176.01 596.806ZM1185.03 613.941H1182.07V612.433C1182.07 611.075 1182.33 609.77 1182.78 608.851C1183.16 608.08 1183.5 607.918 1183.55 607.918C1183.61 607.918 1183.95 608.08 1184.33 608.851C1184.78 609.77 1185.04 611.075 1185.04 612.433V613.941H1185.03Z" fill="white"/>
<path opacity="0.19" d="M1221.03 366.694V345.902L1223.04 345.145C1223.62 344.922 1224.01 344.361 1224.01 343.733C1224.01 343.104 1223.62 342.543 1223.04 342.32L1199.19 333.29C1198.86 333.161 1198.49 333.161 1198.15 333.29L1174.31 342.32C1173.73 342.543 1173.34 343.104 1173.34 343.733C1173.34 344.361 1173.73 344.922 1174.31 345.145L1184.19 348.89C1181.85 355.582 1182.44 359.103 1182.35 360.293C1182.35 360.793 1182.59 361.26 1183 361.537C1183.41 361.814 1183.93 361.875 1184.39 361.685C1184.42 361.672 1187.87 360.286 1191.26 360.286C1194.39 360.286 1197.72 362.943 1197.75 362.97C1198.29 363.409 1199.07 363.409 1199.61 362.97C1200.53 362.226 1203.49 360.286 1206.1 360.286C1209.47 360.286 1212.94 361.672 1212.97 361.685C1213.43 361.868 1213.95 361.814 1214.36 361.537C1214.77 361.26 1215.01 360.793 1215.01 360.293C1214.93 359.191 1215.5 355.548 1213.17 348.89L1218.09 347.031V366.701C1217.33 367.12 1216.66 367.87 1216.15 368.911C1215.49 370.256 1215.12 372.007 1215.12 373.838V376.846C1215.12 377.678 1215.79 378.354 1216.61 378.354H1222.55C1223.37 378.354 1224.03 377.678 1224.03 376.846V373.838C1224.03 372 1223.67 370.249 1223.01 368.911C1222.46 367.857 1221.79 367.106 1221.03 366.694ZM1198.67 336.304L1218.27 343.726C1216.25 344.49 1200.63 350.411 1198.67 351.148C1196.71 350.404 1181.08 344.49 1179.06 343.726L1198.67 336.304ZM1212.01 358.204C1210.49 357.765 1208.31 357.278 1206.09 357.278C1203.05 357.278 1200.11 358.968 1198.67 359.941C1197.22 358.961 1194.28 357.278 1191.25 357.278C1189.03 357.278 1186.85 357.765 1185.32 358.204C1185.41 355.142 1185.94 352.864 1186.96 349.938L1198.15 354.176C1198.48 354.304 1198.85 354.304 1199.19 354.176L1210.37 349.938C1211.39 352.864 1211.93 355.142 1212.01 358.204ZM1221.03 375.339H1218.07V373.832C1218.07 372.473 1218.33 371.169 1218.78 370.249C1219.16 369.479 1219.5 369.317 1219.55 369.317C1219.61 369.317 1219.95 369.479 1220.33 370.249C1220.78 371.169 1221.04 372.473 1221.04 373.832V375.339H1221.03Z" fill="white"/>
<g opacity="0.19">
<g opacity="0.19">
<path opacity="0.19" d="M740.087 387.445C734.333 381.611 725.007 381.611 719.26 387.445C714.507 392.264 714.507 400.078 719.26 404.897C723.213 408.905 729.627 408.905 733.58 404.897C736.893 401.538 736.893 396.083 733.58 392.724C730.78 389.885 726.227 389.885 723.42 392.724C722.66 393.494 722.66 394.745 723.42 395.515C724.18 396.286 725.413 396.286 726.173 395.515C727.453 394.217 729.54 394.217 730.82 395.515C732.613 397.333 732.613 400.28 730.82 402.105C728.387 404.573 724.447 404.573 722.013 402.105C718.78 398.827 718.78 393.521 722.013 390.243C726.24 385.951 733.1 385.951 737.327 390.243C742.8 395.799 742.8 404.796 737.327 410.352C730.293 417.483 718.88 417.483 711.847 410.352C702.86 401.24 702.86 386.471 711.847 377.36C712.607 376.589 712.607 375.339 711.847 374.568C711.087 373.798 709.853 373.798 709.093 374.568C698.587 385.221 698.587 402.497 709.093 413.15C717.653 421.829 731.527 421.829 740.087 413.15C747.08 406.046 747.08 394.542 740.087 387.445Z" fill="white"/>
</g>
</g>
<g opacity="0.19">
<g opacity="0.19">
<path opacity="0.19" d="M327.42 526.686C321.667 520.852 312.34 520.852 306.593 526.686C301.84 531.505 301.84 539.319 306.593 544.138C310.547 548.146 316.96 548.146 320.913 544.138C324.227 540.779 324.227 535.324 320.913 531.965C318.113 529.126 313.56 529.126 310.753 531.965C309.993 532.735 309.993 533.986 310.753 534.756C311.513 535.527 312.747 535.527 313.507 534.756C314.787 533.458 316.873 533.458 318.153 534.756C319.947 536.575 319.947 539.522 318.153 541.347C315.72 543.814 311.78 543.814 309.347 541.347C306.113 538.068 306.113 532.762 309.347 529.484C313.573 525.192 320.433 525.192 324.66 529.484C330.133 535.04 330.133 544.037 324.66 549.593C317.627 556.724 306.213 556.724 299.18 549.593C290.193 540.481 290.193 525.712 299.18 516.601C299.94 515.83 299.94 514.58 299.18 513.809C298.42 513.039 297.187 513.039 296.427 513.809C285.92 524.462 285.92 541.739 296.427 552.391C304.987 561.07 318.86 561.07 327.42 552.391C334.413 545.287 334.413 533.783 327.42 526.686Z" fill="white"/>
</g>
</g>
<g opacity="0.19">
<g opacity="0.19">
<path opacity="0.19" d="M888.753 211.028C883 205.195 873.673 205.195 867.927 211.028C863.173 215.847 863.173 223.661 867.927 228.48C871.88 232.489 878.293 232.489 882.247 228.48C885.56 225.121 885.56 219.666 882.247 216.307C879.447 213.468 874.893 213.468 872.087 216.307C871.327 217.078 871.327 218.328 872.087 219.099C872.847 219.869 874.08 219.869 874.84 219.099C876.12 217.801 878.207 217.801 879.487 219.099C881.28 220.917 881.28 223.864 879.487 225.689C877.053 228.156 873.113 228.156 870.68 225.689C867.447 222.411 867.447 217.105 870.68 213.826C874.907 209.534 881.767 209.534 885.993 213.826C891.467 219.382 891.467 228.379 885.993 233.935C878.96 241.066 867.547 241.066 860.513 233.935C851.527 224.824 851.527 210.055 860.513 200.943C861.273 200.173 861.273 198.922 860.513 198.152C859.753 197.381 858.52 197.381 857.76 198.152C847.253 208.804 847.253 226.081 857.76 236.734C866.32 245.412 880.193 245.412 888.753 236.734C895.747 229.63 895.747 218.125 888.753 211.028Z" fill="white"/>
</g>
</g>
<g opacity="0.19">
<g opacity="0.19">
<path opacity="0.19" d="M1054.75 391.5C1049 385.667 1039.67 385.667 1033.93 391.5C1029.17 396.32 1029.17 404.133 1033.93 408.953C1037.88 412.961 1044.29 412.961 1048.25 408.953C1051.56 405.593 1051.56 400.139 1048.25 396.779C1045.45 393.94 1040.89 393.94 1038.09 396.779C1037.33 397.55 1037.33 398.8 1038.09 399.571C1038.85 400.341 1040.08 400.341 1040.84 399.571C1042.12 398.273 1044.21 398.273 1045.49 399.571C1047.28 401.389 1047.28 404.336 1045.49 406.161C1043.05 408.628 1039.11 408.628 1036.68 406.161C1033.45 402.883 1033.45 397.577 1036.68 394.299C1040.91 390.006 1047.77 390.006 1051.99 394.299C1057.47 399.855 1057.47 408.851 1051.99 414.407C1044.96 421.538 1033.55 421.538 1026.51 414.407C1017.53 405.296 1017.53 390.527 1026.51 381.415C1027.27 380.645 1027.27 379.394 1026.51 378.624C1025.75 377.853 1024.52 377.853 1023.76 378.624C1013.25 389.276 1013.25 406.553 1023.76 417.206C1032.32 425.885 1046.19 425.885 1054.75 417.206C1061.75 410.102 1061.75 398.597 1054.75 391.5Z" fill="white"/>
</g>
</g>
<g opacity="0.19">
<g opacity="0.19">
<path opacity="0.19" d="M572.087 526.009C566.333 520.176 557.007 520.176 551.26 526.009C546.507 530.829 546.507 538.643 551.26 543.462C555.213 547.47 561.627 547.47 565.58 543.462C568.893 540.103 568.893 534.648 565.58 531.288C562.78 528.45 558.227 528.45 555.42 531.288C554.66 532.059 554.66 533.309 555.42 534.08C556.18 534.851 557.413 534.851 558.173 534.08C559.453 532.782 561.54 532.782 562.82 534.08C564.613 535.898 564.613 538.845 562.82 540.67C560.387 543.137 556.447 543.137 554.013 540.67C550.78 537.392 550.78 532.086 554.013 528.808C558.24 524.516 565.1 524.516 569.327 528.808C574.8 534.364 574.8 543.361 569.327 548.917C562.293 556.048 550.88 556.048 543.847 548.917C534.86 539.805 534.86 525.036 543.847 515.925C544.607 515.154 544.607 513.904 543.847 513.133C543.087 512.363 541.853 512.363 541.093 513.133C530.587 523.786 530.587 541.062 541.093 551.715C549.653 560.394 563.527 560.394 572.087 551.715C579.08 544.611 579.08 533.107 572.087 526.009Z" fill="white"/>
</g>
</g>
<g opacity="0.19">
<g opacity="0.19">
<path opacity="0.19" d="M534.087 313.769C528.333 307.936 519.007 307.936 513.26 313.769C508.507 318.588 508.507 326.402 513.26 331.221C517.213 335.229 523.627 335.229 527.58 331.221C530.893 327.862 530.893 322.407 527.58 319.048C524.78 316.209 520.227 316.209 517.42 319.048C516.66 319.818 516.66 321.069 517.42 321.839C518.18 322.61 519.413 322.61 520.173 321.839C521.453 320.542 523.54 320.542 524.82 321.839C526.613 323.658 526.613 326.605 524.82 328.43C522.387 330.897 518.447 330.897 516.013 328.43C512.78 325.151 512.78 319.845 516.013 316.567C520.24 312.275 527.1 312.275 531.327 316.567C536.8 322.123 536.8 331.12 531.327 336.676C524.293 343.807 512.88 343.807 505.847 336.676C496.86 327.564 496.86 312.795 505.847 303.684C506.607 302.913 506.607 301.663 505.847 300.892C505.087 300.122 503.853 300.122 503.093 300.892C492.587 311.545 492.587 328.822 503.093 339.474C511.653 348.153 525.527 348.153 534.087 339.474C541.08 332.37 541.08 320.866 534.087 313.769Z" fill="white"/>
</g>
</g>
<g opacity="0.19">
<g opacity="0.19">
<path opacity="0.19" d="M143.42 276.593C137.667 270.76 128.34 270.76 122.593 276.593C117.84 281.412 117.84 289.226 122.593 294.045C126.547 298.054 132.96 298.054 136.913 294.045C140.227 290.686 140.227 285.231 136.913 281.872C134.113 279.033 129.56 279.033 126.753 281.872C125.993 282.643 125.993 283.893 126.753 284.664C127.513 285.434 128.747 285.434 129.507 284.664C130.787 283.366 132.873 283.366 134.153 284.664C135.947 286.482 135.947 289.429 134.153 291.254C131.72 293.721 127.78 293.721 125.347 291.254C122.113 287.976 122.113 282.67 125.347 279.391C129.573 275.099 136.433 275.099 140.66 279.391C146.133 284.947 146.133 293.944 140.66 299.5C133.627 306.631 122.213 306.631 115.18 299.5C106.193 290.389 106.193 275.62 115.18 266.508C115.94 265.738 115.94 264.487 115.18 263.717C114.42 262.946 113.187 262.946 112.427 263.717C101.92 274.369 101.92 291.646 112.427 302.298C120.987 310.977 134.86 310.977 143.42 302.298C150.413 295.194 150.413 283.69 143.42 276.593Z" fill="white"/>
</g>
</g>
<g opacity="0.19">
<g opacity="0.19">
<path opacity="0.19" d="M108.087 412.454C102.333 406.621 93.0067 406.621 87.26 412.454C82.5067 417.274 82.5067 425.087 87.26 429.907C91.2134 433.915 97.6267 433.915 101.58 429.907C104.893 426.547 104.893 421.093 101.58 417.733C98.78 414.894 94.2267 414.894 91.4201 417.733C90.6601 418.504 90.6601 419.754 91.4201 420.525C92.1801 421.295 93.4134 421.295 94.1734 420.525C95.4534 419.227 97.54 419.227 98.82 420.525C100.613 422.343 100.613 425.29 98.82 427.115C96.3867 429.582 92.4467 429.582 90.0134 427.115C86.7801 423.837 86.7801 418.531 90.0134 415.253C94.2401 410.961 101.1 410.961 105.327 415.253C110.8 420.809 110.8 429.805 105.327 435.361C98.2934 442.492 86.88 442.492 79.8467 435.361C70.86 426.25 70.86 411.481 79.8467 402.369C80.6067 401.599 80.6067 400.348 79.8467 399.578C79.0867 398.807 77.8534 398.807 77.0934 399.578C66.5867 410.231 66.5867 427.507 77.0934 438.16C85.6534 446.839 99.5267 446.839 108.087 438.16C115.08 431.056 115.08 419.552 108.087 412.454Z" fill="white"/>
</g>
</g>
<g opacity="0.19">
<g opacity="0.19">
<path opacity="0.19" d="M354.753 325.936C349 320.103 339.673 320.103 333.927 325.936C329.173 330.755 329.173 338.569 333.927 343.388C337.88 347.396 344.293 347.396 348.247 343.388C351.56 340.029 351.56 334.574 348.247 331.215C345.447 328.376 340.893 328.376 338.087 331.215C337.327 331.985 337.327 333.236 338.087 334.006C338.847 334.777 340.08 334.777 340.84 334.006C342.12 332.709 344.207 332.709 345.487 334.006C347.28 335.825 347.28 338.772 345.487 340.597C343.053 343.064 339.113 343.064 336.68 340.597C333.447 337.318 333.447 332.012 336.68 328.734C340.907 324.442 347.767 324.442 351.993 328.734C357.467 334.29 357.467 343.287 351.993 348.843C344.96 355.974 333.547 355.974 326.513 348.843C317.527 339.731 317.527 324.962 326.513 315.851C327.273 315.08 327.273 313.83 326.513 313.059C325.753 312.289 324.52 312.289 323.76 313.059C313.253 323.712 313.253 340.989 323.76 351.641C332.32 360.32 346.193 360.32 354.753 351.641C361.747 344.537 361.747 333.033 354.753 325.936Z" fill="white"/>
</g>
</g>
</svg>
