<svg width="51" height="57" viewBox="0 0 51 57" fill="none" xmlns="http://www.w3.org/2000/svg">
<path fill-rule="evenodd" clip-rule="evenodd" d="M48.9136 22.6911H11.5979L47.44 12.3082C47.7186 12.2274 47.9536 12.039 48.0937 11.7852C48.2339 11.531 48.2672 11.2319 48.1864 10.9534L46.3108 4.47845C45.5614 1.89233 43.1535 0.0859375 40.455 0.0859375C39.8863 0.0859375 39.3198 0.166687 38.7704 0.325623L5.11833 10.0741C3.56187 10.5248 2.27201 11.5596 1.48545 12.9871C0.699322 14.4145 0.514751 16.0581 0.965496 17.6141L2.79795 23.9399V49.999C2.79795 53.3554 5.52848 56.0859 8.8845 56.0859H22.0274C22.6316 56.0859 23.1212 55.5963 23.1212 54.9922C23.1212 54.3881 22.6316 53.8984 22.0274 53.8984H8.88493C6.7346 53.8984 4.98545 52.1493 4.98545 49.999V35.1146H10.5888H10.5913H10.5935H19.1589H19.1615H19.164H27.7295H27.732H27.7346H36.3H36.3026H36.3047H47.8199V49.999C47.8199 52.1493 46.0707 53.8984 43.9204 53.8984H30.7774C30.1737 53.8984 29.6837 54.3881 29.6837 54.9922C29.6837 55.5963 30.1737 56.0859 30.7774 56.0859H43.9204C47.2768 56.0859 50.0074 53.3554 50.0074 49.999V23.7849C50.0074 23.1807 49.5177 22.6911 48.9136 22.6911ZM29.6273 32.9271L34.2745 24.8786H40.3187L35.672 32.9271H29.6273ZM21.0567 32.9271L25.7039 24.8786H31.7481L27.1014 32.9271H21.0567ZM12.4866 32.9271L17.1333 24.8786H23.178L18.5309 32.9271H12.4866ZM16.5531 18.7677L8.77128 11.2935L14.6019 9.60455C14.6429 9.66437 14.6908 9.72076 14.7455 9.77332L22.5273 17.2476L16.6967 18.9365C16.6557 18.8766 16.6074 18.8198 16.5531 18.7677ZM31.2094 5.00397L38.9912 12.4782L33.1606 14.1671C33.1196 14.1073 33.0718 14.0505 33.0171 13.9984L25.2352 6.52411L31.0658 4.83521C31.1068 4.89502 31.1547 4.95142 31.2094 5.00397ZM22.9772 7.38885L30.7591 14.8627L24.9284 16.552C24.8874 16.4922 24.8396 16.4354 24.7849 16.3832L17.003 8.909L22.8337 7.22009C22.8751 7.27948 22.923 7.3363 22.9772 7.38885ZM39.3792 2.42682C39.7304 2.32513 40.0923 2.27344 40.455 2.27344C42.1858 2.27344 43.7294 3.43042 44.2096 5.08728L45.781 10.5112L41.3928 11.7822C41.3514 11.7224 41.3035 11.666 41.2488 11.6135L33.4674 4.13965L39.3792 2.42682ZM3.40165 14.0424C3.9058 13.1268 4.73167 12.4637 5.72715 12.1753L6.36973 11.989C6.41117 12.0488 6.45903 12.1057 6.51329 12.1578L14.2951 19.632L4.6381 22.4296L3.06669 17.0057C2.7783 16.0107 2.8975 14.9584 3.40165 14.0424ZM4.98545 24.8786H14.6075L9.96073 32.9271H4.98545V24.8786ZM38.1979 32.9271L42.8446 24.8786H47.8199V32.9271H38.1979Z" fill="white"/>
<path fill-rule="evenodd" clip-rule="evenodd" d="M33.9656 44.3953C33.9656 44.0044 33.7571 43.6434 33.4188 43.4481L23.8096 37.9003C23.4712 37.7051 23.0542 37.7051 22.7158 37.9003C22.3774 38.0956 22.1689 38.4566 22.1689 38.8476V49.9431C22.1689 50.3336 22.3774 50.6947 22.7158 50.8899C22.885 50.9878 23.0739 51.0369 23.2627 51.0369C23.4515 51.0369 23.6404 50.9878 23.8096 50.8899L33.4188 45.3426C33.7571 45.1473 33.9656 44.7863 33.9656 44.3953ZM24.3564 48.0487V40.742L30.6844 44.3953L24.3564 48.0487Z" fill="white"/>
<path fill-rule="evenodd" clip-rule="evenodd" d="M26.4026 53.8984C25.8002 53.8984 25.3088 54.3898 25.3088 54.9922C25.3088 55.5946 25.8002 56.0859 26.4026 56.0859C27.0054 56.0859 27.4963 55.5946 27.4963 54.9922C27.4963 54.3898 27.0054 53.8984 26.4026 53.8984Z" fill="white"/>
</svg>
