<?xml version="1.0" encoding="utf-8"?>
<!-- Generator: Adobe Illustrator 24.3.0, SVG Export Plug-In . SVG Version: 6.00 Build 0)  -->
<svg version="1.1" id="Layer_1" xmlns="http://www.w3.org/2000/svg" xmlns:xlink="http://www.w3.org/1999/xlink" x="0px" y="0px"
	 viewBox="0 0 947 112.3" style="enable-background:new 0 0 947 112.3;" xml:space="preserve">
<style type="text/css">
	.st0{fill:#E17C07;}
</style>
<path class="st0" d="M-0.2,21.8c5.8-1.6,11.8-2.8,17.7-4.1c14.6-3.3,29.4-6.2,44.2-8.5C81,6.2,100.6,4,120.1,3.1
	c28.5-1.3,57.2,0.5,84.9,8.2c9.8,2.7,19.5,6.1,29,9.9c16,6.3,31.7,13.3,47.3,20.5c10.6,4.9,21.2,9.9,31.7,15
	c90.3,43.7,135,47,175.8,45.1s92.3-11.5,190.2-59S842.8,1.5,947,38l0,74.3l-947.2,0C0.3,112.3-0.2,21.8-0.2,21.8z"/>
</svg>
